<svg width="192" height="192" viewBox="0 0 192 192" fill="none" xmlns="http://www.w3.org/2000/svg">
  <rect width="192" height="192" rx="24" fill="url(#gradient)"/>
  
  <!-- Fundo com círculo -->
  <circle cx="96" cy="96" r="64" fill="rgba(255,255,255,0.15)" stroke="rgba(255,255,255,0.3)" stroke-width="2"/>
  
  <!-- Símbolo R$ moderno -->
  <g transform="translate(96,96)">
    <!-- R principal -->
    <path d="M-20 -28 L-20 28 M-20 -28 L-4 -28 C8 -28 14 -20 14 -10 C14 0 8 8 -4 8 L-20 8 M-4 8 L14 28" 
          stroke="white" stroke-width="5" stroke-linecap="round" stroke-linejoin="round" fill="none"/>
    
    <!-- Símbolo $ estilizado -->
    <circle cx="20" cy="-8" r="12" stroke="white" stroke-width="3" fill="none"/>
    <path d="M14 -8 L26 -8 M20 -18 L20 2" stroke="white" stroke-width="3" stroke-linecap="round"/>
    
    <!-- Elementos decorativos -->
    <circle cx="-30" cy="0" r="2" fill="rgba(255,255,255,0.8)"/>
    <circle cx="32" cy="6" r="2" fill="rgba(255,255,255,0.8)"/>
    <circle cx="0" cy="-34" r="1.5" fill="rgba(255,255,255,0.6)"/>
    <circle cx="0" cy="34" r="1.5" fill="rgba(255,255,255,0.6)"/>
  </g>
  
  <defs>
    <linearGradient id="gradient" x1="0%" y1="0%" x2="100%" y2="100%">
      <stop offset="0%" style="stop-color:#2196f3;stop-opacity:1" />
      <stop offset="50%" style="stop-color:#1976d2;stop-opacity:1" />
      <stop offset="100%" style="stop-color:#0d47a1;stop-opacity:1" />
    </linearGradient>
  </defs>
</svg>