<svg width="512" height="512" viewBox="0 0 512 512" fill="none" xmlns="http://www.w3.org/2000/svg">
  <rect width="512" height="512" rx="64" fill="url(#gradient)"/>
  
  <!-- Fundo com círculo -->
  <circle cx="256" cy="256" r="172" fill="rgba(255,255,255,0.15)" stroke="rgba(255,255,255,0.3)" stroke-width="4"/>
  
  <!-- Símbolo R$ moderno -->
  <g transform="translate(256,256)">
    <!-- R principal -->
    <path d="M-54 -75 L-54 75 M-54 -75 L-11 -75 C21 -75 38 -54 38 -27 C38 0 21 21 -11 21 L-54 21 M-11 21 L38 75" 
          stroke="white" stroke-width="13" stroke-linecap="round" stroke-linejoin="round" fill="none"/>
    
    <!-- Símbolo $ estilizado -->
    <circle cx="54" cy="-21" r="32" stroke="white" stroke-width="8" fill="none"/>
    <path d="M38 -21 L70 -21 M54 -48 L54 5" stroke="white" stroke-width="8" stroke-linecap="round"/>
    
    <!-- Elementos decorativos -->
    <circle cx="-81" cy="0" r="5" fill="rgba(255,255,255,0.8)"/>
    <circle cx="86" cy="16" r="5" fill="rgba(255,255,255,0.8)"/>
    <circle cx="0" cy="-91" r="4" fill="rgba(255,255,255,0.6)"/>
    <circle cx="0" cy="91" r="4" fill="rgba(255,255,255,0.6)"/>
  </g>
  
  <defs>
    <linearGradient id="gradient" x1="0%" y1="0%" x2="100%" y2="100%">
      <stop offset="0%" style="stop-color:#2196f3;stop-opacity:1" />
      <stop offset="50%" style="stop-color:#1976d2;stop-opacity:1" />
      <stop offset="100%" style="stop-color:#0d47a1;stop-opacity:1" />
    </linearGradient>
  </defs>
</svg>