<svg width="192" height="192" viewBox="0 0 192 192" fill="none" xmlns="http://www.w3.org/2000/svg">
  <rect width="192" height="192" rx="32" fill="url(#gradient)"/>
  <circle cx="96" cy="96" r="72" fill="rgba(255,255,255,0.1)" stroke="rgba(255,255,255,0.2)" stroke-width="2"/>
  
  <!-- Símbolo de Real Brasileiro estilizado -->
  <g transform="translate(96,96)">
    <!-- R principal -->
    <path d="M-24 -32 L-24 32 M-24 -32 L-4 -32 C8 -32 16 -24 16 -12 C16 0 8 8 -4 8 L-24 8 M-4 8 L16 32" 
          stroke="white" stroke-width="6" stroke-linecap="round" stroke-linejoin="round" fill="none"/>
    
    <!-- Cifrão estilizado -->
    <circle cx="24" cy="-12" r="16" stroke="white" stroke-width="4" fill="none"/>
    <path d="M16 -12 L32 -12 M24 -24 L24 0" stroke="white" stroke-width="4" stroke-linecap="round"/>
    
    <!-- Detalhes decorativos -->
    <circle cx="-36" cy="0" r="3" fill="rgba(255,255,255,0.8)"/>
    <circle cx="40" cy="8" r="3" fill="rgba(255,255,255,0.8)"/>
    <circle cx="0" cy="-40" r="2" fill="rgba(255,255,255,0.6)"/>
    <circle cx="0" cy="40" r="2" fill="rgba(255,255,255,0.6)"/>
  </g>
  
  <defs>
    <linearGradient id="gradient" x1="0%" y1="0%" x2="100%" y2="100%">
      <stop offset="0%" style="stop-color:#1976d2;stop-opacity:1" />
      <stop offset="50%" style="stop-color:#1565c0;stop-opacity:1" />
      <stop offset="100%" style="stop-color:#0d47a1;stop-opacity:1" />
    </linearGradient>
  </defs>
</svg>