<svg xmlns="http://www.w3.org/2000/svg" viewBox="0 0 192 192">
  <defs>
    <linearGradient id="goldGradient" x1="0%" y1="0%" x2="100%" y2="100%">
      <stop offset="0%" style="stop-color:#FFD700;stop-opacity:1" />
      <stop offset="50%" style="stop-color:#FFA500;stop-opacity:1" />
      <stop offset="100%" style="stop-color:#FF8C00;stop-opacity:1" />
    </linearGradient>
  </defs>
  
  <!-- Círculo dourado com pontos -->
  <circle cx="96" cy="96" r="88" fill="none" stroke="url(#goldGradient)" stroke-width="4"/>
  <g fill="url(#goldGradient)">
    <!-- Pontos ao redor do círculo -->
    <circle cx="96" cy="8" r="3"/>
    <circle cx="120" cy="12" r="3"/>
    <circle cx="142" cy="22" r="3"/>
    <circle cx="160" cy="38" r="3"/>
    <circle cx="174" cy="58" r="3"/>
    <circle cx="184" cy="80" r="3"/>
    <circle cx="188" cy="104" r="3"/>
    <circle cx="184" cy="128" r="3"/>
    <circle cx="174" cy="150" r="3"/>
    <circle cx="160" cy="170" r="3"/>
    <circle cx="142" cy="186" r="3"/>
    <circle cx="120" cy="188" r="3"/>
    <circle cx="96" cy="184" r="3"/>
    <circle cx="72" cy="188" r="3"/>
    <circle cx="50" cy="186" r="3"/>
    <circle cx="32" cy="170" r="3"/>
    <circle cx="18" cy="150" r="3"/>
    <circle cx="8" cy="128" r="3"/>
    <circle cx="4" cy="104" r="3"/>
    <circle cx="8" cy="80" r="3"/>
    <circle cx="18" cy="58" r="3"/>
    <circle cx="32" cy="38" r="3"/>
    <circle cx="50" cy="22" r="3"/>
    <circle cx="72" cy="12" r="3"/>
  </g>
  
  <!-- Cabeça do leão -->
  <g fill="url(#goldGradient)">
    <!-- Face principal -->
    <ellipse cx="96" cy="100" rx="45" ry="40"/>
    
    <!-- Juba superior -->
    <path d="M60 70 Q50 50 45 65 Q40 80 50 85 Q60 80 65 75 Z"/>
    <path d="M70 60 Q60 40 55 55 Q50 70 60 75 Q70 70 75 65 Z"/>
    <path d="M80 55 Q70 35 65 50 Q60 65 70 70 Q80 65 85 60 Z"/>
    <path d="M90 50 Q80 30 75 45 Q70 60 80 65 Q90 60 95 55 Z"/>
    <path d="M102 50 Q112 30 117 45 Q122 60 112 65 Q102 60 97 55 Z"/>
    <path d="M112 55 Q122 35 127 50 Q132 65 122 70 Q112 65 107 60 Z"/>
    <path d="M122 60 Q132 40 137 55 Q142 70 132 75 Q122 70 117 65 Z"/>
    <path d="M132 70 Q142 50 147 65 Q152 80 142 85 Q132 80 127 75 Z"/>
    
    <!-- Juba lateral esquerda -->
    <path d="M45 85 Q25 80 20 95 Q15 110 25 115 Q35 110 40 105 Z"/>
    <path d="M40 105 Q20 100 15 115 Q10 130 20 135 Q30 130 35 125 Z"/>
    <path d="M35 125 Q15 120 10 135 Q5 150 15 155 Q25 150 30 145 Z"/>
    
    <!-- Juba lateral direita -->
    <path d="M147 85 Q167 80 172 95 Q177 110 167 115 Q157 110 152 105 Z"/>
    <path d="M152 105 Q172 100 177 115 Q182 130 172 135 Q162 130 157 125 Z"/>
    <path d="M157 125 Q177 120 182 135 Q187 150 177 155 Q167 150 162 145 Z"/>
    
    <!-- Juba inferior -->
    <path d="M60 135 Q50 155 45 140 Q40 125 50 120 Q60 125 65 130 Z"/>
    <path d="M75 140 Q65 160 60 145 Q55 130 65 125 Q75 130 80 135 Z"/>
    <path d="M90 142 Q80 162 75 147 Q70 132 80 127 Q90 132 95 137 Z"/>
    <path d="M102 142 Q112 162 117 147 Q122 132 112 127 Q102 132 97 137 Z"/>
    <path d="M117 140 Q127 160 132 145 Q137 130 127 125 Q117 130 112 135 Z"/>
    <path d="M132 135 Q142 155 147 140 Q152 125 142 120 Q132 125 127 130 Z"/>
    
    <!-- Focinho -->
    <ellipse cx="96" cy="105" rx="25" ry="20"/>
    
    <!-- Nariz -->
    <path d="M96 95 Q90 90 85 95 Q90 100 96 95 Q102 100 107 95 Q102 90 96 95 Z"/>
    
    <!-- Boca -->
    <path d="M96 100 Q85 105 80 110 Q85 115 96 110 Q107 115 112 110 Q107 105 96 100 Z"/>
    
    <!-- Olhos -->
    <ellipse cx="85" cy="90" rx="8" ry="6" fill="#000"/>
    <ellipse cx="107" cy="90" rx="8" ry="6" fill="#000"/>
    <ellipse cx="87" cy="88" rx="2" ry="2" fill="#FFF"/>
    <ellipse cx="109" cy="88" rx="2" ry="2" fill="#FFF"/>
    
    <!-- Bigodes -->
    <path d="M65 100 Q45 95 40 100 Q45 105 65 100" stroke="url(#goldGradient)" stroke-width="2" fill="none"/>
    <path d="M65 110 Q45 105 40 110 Q45 115 65 110" stroke="url(#goldGradient)" stroke-width="2" fill="none"/>
    <path d="M127 100 Q147 95 152 100 Q147 105 127 100" stroke="url(#goldGradient)" stroke-width="2" fill="none"/>
    <path d="M127 110 Q147 105 152 110 Q147 115 127 110" stroke="url(#goldGradient)" stroke-width="2" fill="none"/>
  </g>
</svg>